<svg width="40" height="32" viewBox="0 0 40 32" fill="none" xmlns="http://www.w3.org/2000/svg">
<path d="M24.2444 0.64659C24.4753 0.246486 24.9022 0 25.3642 0H32.7333C33.2309 0 33.5419 0.538656 33.2931 0.969632L26.9264 12H18.0645C17.8335 12 17.6201 12.1232 17.5046 12.3233L13.0736 20H4.95798C4.46036 20 4.14933 19.4613 4.39808 19.0304L12.7004 4.64659C12.9313 4.24649 13.3582 4 13.8202 4H21.9355C22.1665 4 22.3799 3.87676 22.4954 3.6767L24.2444 0.64659Z" fill="url(#paint0_linear_2302_6397)"/>
<path d="M13.0736 20H21.9355C22.1665 20 22.38 19.8768 22.4954 19.6767L26.9264 12H35.0421C35.5397 12 35.8507 12.5387 35.602 12.9696L27.2996 27.3534C27.0687 27.7535 26.6418 28 26.1798 28H18.0645C17.8335 28 17.6201 28.1232 17.5046 28.3233L15.7556 31.3534C15.5247 31.7535 15.0978 32 14.6358 32H7.26676C6.76915 32 6.45811 31.4613 6.70687 31.0304L13.0736 20Z" fill="url(#paint1_linear_2302_6397)"/>
<defs>
<linearGradient id="paint0_linear_2302_6397" x1="4.31055" y1="16" x2="35.6895" y2="16" gradientUnits="userSpaceOnUse">
<stop stop-color="#F43F5E"/>
<stop offset="1" stop-color="#FCD34D"/>
</linearGradient>
<linearGradient id="paint1_linear_2302_6397" x1="4.31055" y1="16" x2="35.6895" y2="16" gradientUnits="userSpaceOnUse">
<stop stop-color="#F43F5E"/>
<stop offset="1" stop-color="#FCD34D"/>
</linearGradient>
</defs>
</svg>
